<svg width="308" height="307" viewBox="0 0 308 307" fill="none" xmlns="http://www.w3.org/2000/svg">
<g filter="url(#filter0_d_304_47)">
<path d="M274 302H34C26.0435 302 18.4129 298.294 12.7868 291.697C7.1607 285.1 4 276.153 4 266.824V38.1765C4 28.8471 7.1607 19.8998 12.7868 13.3029C18.4129 6.70608 26.0435 3 34 3H274C281.956 3 289.587 6.70608 295.213 13.3029C300.839 19.8998 304 28.8471 304 38.1765V266.824C304 276.153 300.839 285.1 295.213 291.697C289.587 298.294 281.956 302 274 302Z" fill="white"/>
</g>
<rect x="84" y="45" width="182" height="31" rx="11" fill="#219CF7"/>
<rect x="84" y="109" width="182" height="31" rx="11" fill="#219CF7"/>
<rect x="129" y="164" width="137" height="31" rx="11" fill="#219CF7"/>
<rect x="84" y="228" width="182" height="31" rx="11" fill="#219CF7"/>
<path d="M57.9971 49.6572V71H53.4121V54.8721L48.4609 56.3809V52.8359L57.543 49.6572H57.9971ZM65.0869 68.832C65.0869 68.168 65.3213 67.6113 65.79 67.1621C66.2686 66.7129 66.8887 66.4883 67.6504 66.4883C68.4219 66.4883 69.0371 66.7129 69.4961 67.1621C69.9648 67.6113 70.1992 68.168 70.1992 68.832C70.1992 69.4863 69.9648 70.0381 69.4961 70.4873C69.0371 70.9365 68.4219 71.1611 67.6504 71.1611C66.8887 71.1611 66.2686 70.9365 65.79 70.4873C65.3213 70.0381 65.0869 69.4863 65.0869 68.832Z" fill="#219CF7"/>
<path d="M62.1279 131.44V135H47.3916V131.982L54.2764 124.688C54.9209 123.945 55.4336 123.291 55.8145 122.725C56.2051 122.158 56.4883 121.646 56.6641 121.187C56.8398 120.718 56.9277 120.288 56.9277 119.897C56.9277 119.263 56.8252 118.726 56.6201 118.286C56.4248 117.847 56.1367 117.51 55.7559 117.275C55.375 117.041 54.9111 116.924 54.3643 116.924C53.7783 116.924 53.2754 117.075 52.8555 117.378C52.4355 117.681 52.1133 118.101 51.8887 118.638C51.6641 119.165 51.5518 119.766 51.5518 120.439H46.9521C46.9521 119.141 47.2646 117.959 47.8896 116.895C48.5146 115.82 49.3887 114.966 50.5117 114.331C51.6348 113.687 52.9482 113.364 54.4521 113.364C55.9951 113.364 57.2891 113.608 58.334 114.097C59.3789 114.585 60.1699 115.283 60.707 116.191C61.2441 117.1 61.5127 118.193 61.5127 119.473C61.5127 120.195 61.3955 120.894 61.1611 121.567C60.9365 122.241 60.6094 122.91 60.1797 123.574C59.75 124.238 59.2324 124.917 58.627 125.61C58.0215 126.294 57.3379 127.017 56.5762 127.778L53.3535 131.44H62.1279ZM65.0869 132.832C65.0869 132.168 65.3213 131.611 65.79 131.162C66.2686 130.713 66.8887 130.488 67.6504 130.488C68.4219 130.488 69.0371 130.713 69.4961 131.162C69.9648 131.611 70.1992 132.168 70.1992 132.832C70.1992 133.486 69.9648 134.038 69.4961 134.487C69.0371 134.937 68.4219 135.161 67.6504 135.161C66.8887 135.161 66.2686 134.937 65.79 134.487C65.3213 134.038 65.0869 133.486 65.0869 132.832Z" fill="#219CF7"/>
<path d="M51.8008 239.388H54.1299C54.7939 239.388 55.3408 239.271 55.7705 239.036C56.21 238.802 56.5322 238.47 56.7373 238.04C56.9521 237.61 57.0596 237.107 57.0596 236.531C57.0596 236.033 56.9619 235.589 56.7666 235.198C56.5713 234.808 56.2734 234.5 55.873 234.275C55.4824 234.041 54.9746 233.924 54.3496 233.924C53.9004 233.924 53.4707 234.017 53.0605 234.202C52.6602 234.378 52.333 234.637 52.0791 234.979C51.8252 235.311 51.6982 235.711 51.6982 236.18H47.1133C47.1133 234.988 47.4355 233.958 48.0801 233.089C48.7344 232.22 49.5986 231.551 50.6729 231.082C51.7568 230.604 52.9385 230.364 54.2178 230.364C55.6924 230.364 56.9863 230.599 58.0996 231.067C59.2227 231.526 60.0918 232.21 60.707 233.118C61.332 234.017 61.6445 235.13 61.6445 236.458C61.6445 237.151 61.4785 237.82 61.1465 238.465C60.8242 239.1 60.3604 239.666 59.7549 240.164C59.1592 240.652 58.4463 241.043 57.6162 241.336C56.7959 241.619 55.8828 241.761 54.877 241.761H51.8008V239.388ZM51.8008 242.83V240.501H54.877C55.9902 240.501 56.9863 240.628 57.8652 240.882C58.7441 241.136 59.4912 241.502 60.1064 241.98C60.7217 242.459 61.1904 243.04 61.5127 243.724C61.835 244.407 61.9961 245.169 61.9961 246.009C61.9961 247.005 61.8008 247.894 61.4102 248.675C61.0195 249.456 60.4727 250.115 59.7695 250.652C59.0664 251.189 58.2412 251.6 57.2939 251.883C56.3467 252.156 55.3213 252.293 54.2178 252.293C53.3291 252.293 52.4453 252.171 51.5664 251.927C50.6875 251.683 49.8916 251.312 49.1787 250.813C48.4658 250.306 47.8945 249.666 47.4648 248.895C47.0352 248.113 46.8203 247.186 46.8203 246.111H51.4053C51.4053 246.609 51.5322 247.059 51.7861 247.459C52.0498 247.85 52.4062 248.162 52.8555 248.396C53.3145 248.621 53.8125 248.733 54.3496 248.733C54.9941 248.733 55.541 248.616 55.9902 248.382C56.4492 248.138 56.7959 247.806 57.0303 247.386C57.2744 246.966 57.3965 246.482 57.3965 245.936C57.3965 245.193 57.2646 244.598 57.001 244.148C56.7471 243.689 56.376 243.357 55.8877 243.152C55.3994 242.938 54.8135 242.83 54.1299 242.83H51.8008ZM65.0869 249.832C65.0869 249.168 65.3213 248.611 65.79 248.162C66.2686 247.713 66.8887 247.488 67.6504 247.488C68.4219 247.488 69.0371 247.713 69.4961 248.162C69.9648 248.611 70.1992 249.168 70.1992 249.832C70.1992 250.486 69.9648 251.038 69.4961 251.487C69.0371 251.937 68.4219 252.161 67.6504 252.161C66.8887 252.161 66.2686 251.937 65.79 251.487C65.3213 251.038 65.0869 250.486 65.0869 249.832Z" fill="#219CF7"/>
<path d="M103.997 168.657V190H99.4121V173.872L94.4609 175.381V171.836L103.543 168.657H103.997ZM111.087 187.832C111.087 187.168 111.321 186.611 111.79 186.162C112.269 185.713 112.889 185.488 113.65 185.488C114.422 185.488 115.037 185.713 115.496 186.162C115.965 186.611 116.199 187.168 116.199 187.832C116.199 188.486 115.965 189.038 115.496 189.487C115.037 189.937 114.422 190.161 113.65 190.161C112.889 190.161 112.269 189.937 111.79 189.487C111.321 189.038 111.087 188.486 111.087 187.832Z" fill="#219CF7"/>
<defs>
<filter id="filter0_d_304_47" x="0" y="0" width="308" height="307" filterUnits="userSpaceOnUse" color-interpolation-filters="sRGB">
<feFlood flood-opacity="0" result="BackgroundImageFix"/>
<feColorMatrix in="SourceAlpha" type="matrix" values="0 0 0 0 0 0 0 0 0 0 0 0 0 0 0 0 0 0 127 0" result="hardAlpha"/>
<feOffset dy="1"/>
<feGaussianBlur stdDeviation="2"/>
<feComposite in2="hardAlpha" operator="out"/>
<feColorMatrix type="matrix" values="0 0 0 0 0 0 0 0 0 0 0 0 0 0 0 0 0 0 0.25 0"/>
<feBlend mode="normal" in2="BackgroundImageFix" result="effect1_dropShadow_304_47"/>
<feBlend mode="normal" in="SourceGraphic" in2="effect1_dropShadow_304_47" result="shape"/>
</filter>
</defs>
</svg>
