<svg width="308" height="307" viewBox="0 0 308 307" fill="none" xmlns="http://www.w3.org/2000/svg">
<g filter="url(#filter0_d_307_83)">
<path d="M274 302H34C26.0435 302 18.4129 298.294 12.7868 291.697C7.1607 285.1 4 276.153 4 266.824V38.1765C4 28.8471 7.1607 19.8998 12.7868 13.3029C18.4129 6.70608 26.0435 3 34 3H274C281.956 3 289.587 6.70608 295.213 13.3029C300.839 19.8998 304 28.8471 304 38.1765V266.824C304 276.153 300.839 285.1 295.213 291.697C289.587 298.294 281.956 302 274 302Z" fill="#F9F9F9"/>
<circle cx="43.3795" cy="162.379" r="10.3795" fill="#219CF7"/>
<rect x="61.125" y="152" width="121.875" height="20.7589" rx="10.3795" fill="#219CF7"/>
<circle cx="43.3795" cy="205.237" r="10.3795" fill="#219CF7"/>
<rect x="61.125" y="194.857" width="121.875" height="20.7589" rx="10.3795" fill="#219CF7"/>
<circle cx="43.3795" cy="248.379" r="10.3795" fill="#219CF7"/>
<rect x="61.125" y="238" width="121.875" height="20.7589" rx="10.3795" fill="#219CF7"/>
</g>
<path d="M99.81 98.11V101.5H116.1V98.11H99.81ZM99.81 105.07V108.46H116.1V105.07H99.81ZM99.81 112V115.51H116.1V112H99.81ZM97.2 91.15V117.37H100.83V94.69H114.78V117.37H118.59V91.15H97.2ZM135.75 89.65C134.82 94.42 132.99 99.1 130.41 101.89C131.37 102.31 133.08 103.27 133.83 103.84C136.29 100.66 138.33 95.65 139.5 90.31L135.75 89.65ZM141.3 98.08H139.35V101.38C139.35 104.8 137.34 111.43 129.21 114.67C129.84 115.33 130.98 116.86 131.4 117.7C137.49 115.06 140.55 109.93 141.27 107.23C141.84 109.93 144.66 115.24 150.03 117.7C150.6 116.8 151.68 115.3 152.37 114.43C144.96 111.19 143.16 104.65 143.16 101.38V98.08H141.3ZM123.81 110.38L126.12 113.47C128.19 111.43 130.65 108.79 132.72 106.36L130.68 103.27C128.19 106 125.49 108.76 123.81 110.38ZM124.68 94.03C126.51 95.35 128.85 97.3 129.9 98.62L132.63 95.65C131.46 94.36 129.03 92.56 127.23 91.39L124.68 94.03ZM137.04 94.72L135.27 98.29H149.34V94.72H137.04ZM148.14 94.72V95.5C147.69 97.87 146.46 101.05 145.5 102.88C146.37 103.21 147.81 103.96 148.56 104.35C149.73 102.22 151.17 99.1 152.04 96.07L149.37 94.51L148.68 94.72H148.14Z" fill="#219CF7"/>
<circle cx="53" cy="104" r="20" fill="#219CF7"/>
<path d="M4 33C4 16.4315 17.4315 3 34 3H274C290.569 3 304 16.4315 304 33V61H4V33Z" fill="#219CF7"/>
<defs>
<filter id="filter0_d_307_83" x="0" y="0" width="308" height="307" filterUnits="userSpaceOnUse" color-interpolation-filters="sRGB">
<feFlood flood-opacity="0" result="BackgroundImageFix"/>
<feColorMatrix in="SourceAlpha" type="matrix" values="0 0 0 0 0 0 0 0 0 0 0 0 0 0 0 0 0 0 127 0" result="hardAlpha"/>
<feOffset dy="1"/>
<feGaussianBlur stdDeviation="2"/>
<feComposite in2="hardAlpha" operator="out"/>
<feColorMatrix type="matrix" values="0 0 0 0 0 0 0 0 0 0 0 0 0 0 0 0 0 0 0.25 0"/>
<feBlend mode="normal" in2="BackgroundImageFix" result="effect1_dropShadow_307_83"/>
<feBlend mode="normal" in="SourceGraphic" in2="effect1_dropShadow_307_83" result="shape"/>
</filter>
</defs>
</svg>
