<svg width="308" height="307" viewBox="0 0 308 307" fill="none" xmlns="http://www.w3.org/2000/svg">
<g filter="url(#filter0_d_307_84)">
<path d="M274 302H34C26.0435 302 18.4129 298.294 12.7868 291.697C7.1607 285.1 4 276.153 4 266.824V38.1765C4 28.8471 7.1607 19.8998 12.7868 13.3029C18.4129 6.70608 26.0435 3 34 3H274C281.956 3 289.587 6.70608 295.213 13.3029C300.839 19.8998 304 28.8471 304 38.1765V266.824C304 276.153 300.839 285.1 295.213 291.697C289.587 298.294 281.956 302 274 302Z" fill="white"/>
<circle cx="43.3795" cy="134.379" r="10.3795" fill="#219CF7"/>
<rect x="61.125" y="124" width="121.875" height="20.7589" rx="10.3795" fill="#219CF7"/>
<circle cx="43.3795" cy="177.237" r="10.3795" fill="#219CF7"/>
<rect x="61.125" y="166.857" width="121.875" height="20.7589" rx="10.3795" fill="#219CF7"/>
<circle cx="43.3795" cy="220.379" r="10.3795" fill="#219CF7"/>
<rect x="61.125" y="210" width="121.875" height="20.7589" rx="10.3795" fill="#219CF7"/>
</g>
<path d="M4 33C4 16.4315 17.4315 3 34 3H274C290.569 3 304 16.4315 304 33V61H4V33Z" fill="#219CF7"/>
<path d="M86.448 30.488V33.2H99.48V30.488H86.448ZM86.448 36.056V38.768H99.48V36.056H86.448ZM86.448 41.6V44.408H99.48V41.6H86.448ZM84.36 24.92V45.896H87.264V27.752H98.424V45.896H101.472V24.92H84.36ZM115.2 23.72C114.456 27.536 112.992 31.28 110.928 33.512C111.696 33.848 113.064 34.616 113.664 35.072C115.632 32.528 117.264 28.52 118.2 24.248L115.2 23.72ZM119.64 30.464H118.08V33.104C118.08 35.84 116.472 41.144 109.968 43.736C110.472 44.264 111.384 45.488 111.72 46.16C116.592 44.048 119.04 39.944 119.616 37.784C120.072 39.944 122.328 44.192 126.624 46.16C127.08 45.44 127.944 44.24 128.496 43.544C122.568 40.952 121.128 35.72 121.128 33.104V30.464H119.64ZM105.648 40.304L107.496 42.776C109.152 41.144 111.12 39.032 112.776 37.088L111.144 34.616C109.152 36.8 106.992 39.008 105.648 40.304ZM106.344 27.224C107.808 28.28 109.68 29.84 110.52 30.896L112.704 28.52C111.768 27.488 109.824 26.048 108.384 25.112L106.344 27.224ZM116.232 27.776L114.816 30.632H126.072V27.776H116.232ZM125.112 27.776V28.4C124.752 30.296 123.768 32.84 123 34.304C123.696 34.568 124.848 35.168 125.448 35.48C126.384 33.776 127.536 31.28 128.232 28.856L126.096 27.608L125.544 27.776H125.112Z" fill="white"/>
<circle cx="48" cy="35" r="15" fill="white"/>
<defs>
<filter id="filter0_d_307_84" x="0" y="0" width="308" height="307" filterUnits="userSpaceOnUse" color-interpolation-filters="sRGB">
<feFlood flood-opacity="0" result="BackgroundImageFix"/>
<feColorMatrix in="SourceAlpha" type="matrix" values="0 0 0 0 0 0 0 0 0 0 0 0 0 0 0 0 0 0 127 0" result="hardAlpha"/>
<feOffset dy="1"/>
<feGaussianBlur stdDeviation="2"/>
<feComposite in2="hardAlpha" operator="out"/>
<feColorMatrix type="matrix" values="0 0 0 0 0 0 0 0 0 0 0 0 0 0 0 0 0 0 0.25 0"/>
<feBlend mode="normal" in2="BackgroundImageFix" result="effect1_dropShadow_307_84"/>
<feBlend mode="normal" in="SourceGraphic" in2="effect1_dropShadow_307_84" result="shape"/>
</filter>
</defs>
</svg>
