<svg xmlns="http://www.w3.org/2000/svg" viewBox="0 0 48 48"><title>external-link</title><path d="M41.4,37.1H6.9a3,3,0,0,1-3-3V14.4a3,3,0,0,1,3-3H41.4a3,3,0,0,1,3,3V34a3,3,0,0,1-2.9,3.1Z" fill="#c7e8ff"/><polygon points="27 17.5 27 20.3 34.8 20.3 26.1 29 28.1 30.9 36.8 22.2 36.8 30 39.6 30 39.6 17.5 27 17.5" fill="#219cf7"/><rect x="8.3" y="22.8" width="12.9" height="2.8" fill="#219cf7"/><rect x="8.3" y="28.2" width="12.9" height="2.8" fill="#219cf7"/><rect x="8.3" y="17.5" width="12.9" height="2.8" fill="#219cf7"/></svg>