<svg width="1400" height="479" viewBox="0 0 1400 479" fill="none" xmlns="http://www.w3.org/2000/svg">
<g clip-path="url(#clip0)">
<path d="M-37.1299 439.895C-37.1299 439.895 -1.0731 561.878 107.702 567.836C216.477 573.794 254.113 489.247 352.554 504.522C450.995 519.797 477.706 600.062 601.446 567.836C725.186 535.61 758.979 448.805 889.446 518.536C1019.91 588.267 1160.74 606.498 1255.71 518.536C1350.68 430.574 1449 532.072 1449 532.072L1434.7 -222.615H-16.1211L-37.1299 439.895Z" fill="#999999"/>
<path opacity="0.558" d="M86.9331 439.895C86.9331 439.895 123.963 561.878 235.663 567.837C347.363 573.796 386.014 489.248 487.105 504.523C588.196 519.798 615.626 600.063 742.697 567.837C869.768 535.611 904.47 448.806 1038.45 518.537C1172.43 588.268 1317.05 606.499 1414.58 518.537C1512.1 430.575 1613.07 532.073 1613.07 532.073L1598.38 -222.61H108.507L86.9331 439.895Z" fill="#999999"/>
</g>
<defs>
<clipPath id="clip0">
<rect width="1400" height="776" fill="white" transform="translate(0 -198)"/>
</clipPath>
</defs>
</svg>
