<svg xmlns="http://www.w3.org/2000/svg" viewBox="0 0 48 48"><title>hero</title><path d="M40,41H8a4,4,0,0,1-4-4V11A4,4,0,0,1,8,7H40a4,4,0,0,1,4,4V37a4,4,0,0,1-4,4" fill="#c7e8ff"/><path d="M32.7,14.4a2.4,2.4,0,1,0,4.8,0A2.39,2.39,0,0,0,35,12a2.29,2.29,0,0,0-2.3,2.4" fill="#219cf7"/><polygon points="19.4 13.4 10.7 24.2 28.2 24.2 19.4 13.4" fill="#219cf7"/><polygon points="28.2 17.5 21.8 24.2 34.4 24.2 28.2 17.5" fill="#219cf7"/><rect x="10" y="27.9" width="27.4" height="2.8" fill="#219cf7"/><rect x="10" y="33.6" width="27.5" height="2.8" fill="#219cf7"/></svg>