<svg width="93" height="48" viewBox="0 0 93 48" fill="none" xmlns="http://www.w3.org/2000/svg">
<path d="M41.2 37.1H6.70001C5.90436 37.1 5.1413 36.7839 4.57869 36.2213C4.01608 35.6587 3.70001 34.8956 3.70001 34.1V14.4C3.70001 13.6043 4.01608 12.8413 4.57869 12.2787C5.1413 11.7161 5.90436 11.4 6.70001 11.4H41.2C41.9957 11.4 42.7587 11.7161 43.3213 12.2787C43.8839 12.8413 44.2 13.6043 44.2 14.4V34.1C44.2 34.8956 43.8839 35.6587 43.3213 36.2213C42.7587 36.7839 41.9957 37.1 41.2 37.1Z" fill="#C7E8FF"/>
<path d="M21.8 32H9.09999C8.75681 31.9948 8.42915 31.8562 8.18646 31.6135C7.94377 31.3708 7.80515 31.0432 7.79999 30.7V18C7.80515 17.6568 7.94377 17.3292 8.18646 17.0865C8.42915 16.8438 8.75681 16.7052 9.09999 16.7H21.8C22.1432 16.7052 22.4708 16.8438 22.7135 17.0865C22.9562 17.3292 23.0948 17.6568 23.1 18V30.7C23.0948 31.0432 22.9562 31.3708 22.7135 31.6135C22.4708 31.8562 22.1432 31.9948 21.8 32V32Z" fill="#219CF7"/>
<path d="M39.6 25.4H26.7V28.2H39.6V25.4Z" fill="#219CF7"/>
<path d="M39.6 20.1H26.7V22.9H39.6V20.1Z" fill="#219CF7"/>
<path d="M86.2 37.1H51.7C50.9043 37.1 50.1413 36.7839 49.5787 36.2213C49.0161 35.6587 48.7 34.8956 48.7 34.1V14.4C48.7 13.6043 49.0161 12.8413 49.5787 12.2787C50.1413 11.7161 50.9043 11.4 51.7 11.4H86.2C86.9956 11.4 87.7587 11.7161 88.3213 12.2787C88.8839 12.8413 89.2 13.6043 89.2 14.4V34.1C89.2 34.8956 88.8839 35.6587 88.3213 36.2213C87.7587 36.7839 86.9956 37.1 86.2 37.1Z" fill="#C7E8FF"/>
<path d="M66.8 32H54.1C53.7568 31.9948 53.4292 31.8562 53.1865 31.6135C52.9438 31.3708 52.8052 31.0432 52.8 30.7V18C52.8052 17.6568 52.9438 17.3292 53.1865 17.0865C53.4292 16.8438 53.7568 16.7052 54.1 16.7H66.8C67.1432 16.7052 67.4708 16.8438 67.7135 17.0865C67.9562 17.3292 68.0948 17.6568 68.1 18V30.7C68.0948 31.0432 67.9562 31.3708 67.7135 31.6135C67.4708 31.8562 67.1432 31.9948 66.8 32V32Z" fill="#219CF7"/>
<path d="M84.6 25.4H71.7V28.2H84.6V25.4Z" fill="#219CF7"/>
<path d="M84.6 20.1H71.7V22.9H84.6V20.1Z" fill="#219CF7"/>
</svg>
