<svg width="33" height="36" viewBox="0 0 33 36" fill="none" xmlns="http://www.w3.org/2000/svg">
<path d="M14.8 16H2.09999C1.75681 15.9948 1.42915 15.8562 1.18646 15.6135C0.94377 15.3708 0.805149 15.0432 0.799988 14.7V2C0.805149 1.65682 0.94377 1.32915 1.18646 1.08647C1.42915 0.843778 1.75681 0.705158 2.09999 0.699997H14.8C15.1432 0.705158 15.4708 0.843778 15.7135 1.08647C15.9562 1.32915 16.0948 1.65682 16.1 2V14.7C16.0948 15.0432 15.9562 15.3708 15.7135 15.6135C15.4708 15.8562 15.1432 15.9948 14.8 16V16Z" fill="#219CF7"/>
<path d="M32.6 9.39999H19.7V12.2H32.6V9.39999Z" fill="#219CF7"/>
<path d="M32.6 4.10001H19.7V6.90001H32.6V4.10001Z" fill="#219CF7"/>
<path d="M14.8 36H2.09999C1.75681 35.9948 1.42915 35.8562 1.18646 35.6135C0.94377 35.3708 0.805149 35.0432 0.799988 34.7V22C0.805149 21.6568 0.94377 21.3292 1.18646 21.0865C1.42915 20.8438 1.75681 20.7052 2.09999 20.7H14.8C15.1432 20.7052 15.4708 20.8438 15.7135 21.0865C15.9562 21.3292 16.0948 21.6568 16.1 22V34.7C16.0948 35.0432 15.9562 35.3708 15.7135 35.6135C15.4708 35.8562 15.1432 35.9948 14.8 36V36Z" fill="#219CF7"/>
<path d="M32.6 29.4H19.7V32.2H32.6V29.4Z" fill="#219CF7"/>
<path d="M32.6 24.1H19.7V26.9H32.6V24.1Z" fill="#219CF7"/>
</svg>
