<svg width="40" height="30" viewBox="0 0 40 30" fill="none" xmlns="http://www.w3.org/2000/svg">
<path d="M28.4 27H1V29.8H28.4V27Z" fill="#C7E8FF"/>
<path d="M36 23H4C2.93913 23 1.92172 22.7149 1.17157 22.2075C0.421427 21.7 0 21.0118 0 20.2941V2.70588C0 1.98824 0.421427 1.29999 1.17157 0.792534C1.92172 0.285083 2.93913 0 4 0H36C37.0609 0 38.0783 0.285083 38.8284 0.792534C39.5786 1.29999 40 1.98824 40 2.70588V20.2941C40 21.0118 39.5786 21.7 38.8284 22.2075C38.0783 22.7149 37.0609 23 36 23Z" fill="#C7E8FF"/>
<path d="M28.7 7.4C28.7 7.71517 28.7621 8.02726 28.8827 8.31844C29.0033 8.60962 29.1801 8.8742 29.403 9.09706C29.6258 9.31992 29.8904 9.4967 30.1816 9.61731C30.4728 9.73792 30.7849 9.8 31.1 9.8C31.4152 9.8 31.7273 9.73792 32.0185 9.61731C32.3097 9.4967 32.5742 9.31992 32.7971 9.09706C33.02 8.8742 33.1967 8.60962 33.3173 8.31844C33.438 8.02726 33.5 7.71517 33.5 7.4C33.5017 7.07583 33.4375 6.7547 33.3111 6.45614C33.1848 6.15759 32.9991 5.88786 32.7652 5.66335C32.5314 5.43885 32.2543 5.26427 31.9508 5.15023C31.6474 5.03619 31.3239 4.98508 31 5C30.689 4.99828 30.3808 5.05995 30.0944 5.18125C29.808 5.30255 29.5493 5.48092 29.334 5.7055C29.1188 5.93008 28.9516 6.19615 28.8426 6.48749C28.7336 6.77882 28.6851 7.0893 28.7 7.4Z" fill="#219CF7"/>
<path d="M15.4 6.39999L6.70001 17.2H24.2L15.4 6.39999Z" fill="#219CF7"/>
<path d="M24.2 10.5L17.8 17.2H30.4L24.2 10.5Z" fill="#219CF7"/>
</svg>
