<svg xmlns="http://www.w3.org/2000/svg" viewBox="0 0 48 48"><title>slider</title><path d="M9.8,34.3H6a2.22,2.22,0,0,1-2.2-2.2V15.9A2.22,2.22,0,0,1,6,13.7H9.9V34.3Z" fill="#c7e8ff"/><path d="M38.2,34H42a2.22,2.22,0,0,0,2.2-2.2V15.6A2.22,2.22,0,0,0,42,13.4H38.1V34Z" fill="#c7e8ff"/><path d="M34.9,37.9H13.1a2.22,2.22,0,0,1-2.2-2.2V12.2A2.22,2.22,0,0,1,13.1,10H34.8A2.22,2.22,0,0,1,37,12.2V35.8A2.11,2.11,0,0,1,34.9,37.9Z" fill="#c7e8ff"/><path d="M27.2,18.7a1.94,1.94,0,0,0,1.88,2h.12a2,2,0,1,0-2-2" fill="#219cf7"/><polygon points="21.4 19.5 13.7 30.8 29 30.8 21.4 19.5" fill="#219cf7"/><polygon points="27.2 22.9 21.6 30.8 32.7 30.8 27.2 22.9" fill="#219cf7"/></svg>