<svg xmlns="http://www.w3.org/2000/svg" viewBox="0 0 48 48"><title>split-hero</title><path d="M40,40.8H8a4,4,0,0,1-4-4v-26a4,4,0,0,1,4-4H40a4,4,0,0,1,4,4v26a4,4,0,0,1-4,4" fill="#c7e8ff"/><path d="M20.1,19.1a1.94,1.94,0,0,0,2,2,2,2,0,0,0,2-2,2,2,0,0,0-4,0" fill="#219cf7"/><polygon points="14.4 19.9 6.9 30.9 21.9 30.9 14.4 19.9" fill="#219cf7"/><polygon points="20.1 23.2 14.6 30.9 25.5 30.9 20.1 23.2" fill="#219cf7"/><rect x="27.5" y="22.4" width="13.7" height="2.8" fill="#219cf7"/><rect x="27.5" y="17.1" width="13.7" height="2.8" fill="#219cf7"/><rect x="27.5" y="28.1" width="13.7" height="2.8" fill="#219cf7"/></svg>