<svg width="1400" height="536" viewBox="0 0 1400 536" fill="none" xmlns="http://www.w3.org/2000/svg">
<g clip-path="url(#clip0)">
<path d="M-37.1299 397.895C-37.1299 397.895 -1.0731 519.878 107.702 525.836C216.477 531.794 254.113 447.247 352.554 462.522C450.995 477.797 477.706 558.062 601.446 525.836C725.186 493.61 758.979 406.805 889.446 476.536C1019.91 546.267 1160.74 564.498 1255.71 476.536C1350.68 388.574 1449 490.072 1449 490.072L1434.7 -264.615H-16.1211L-37.1299 397.895Z" fill="#999999"/>
<path opacity="0.558" d="M86.9331 397.895C86.9331 397.895 123.963 519.878 235.663 525.837C347.363 531.796 386.014 447.248 487.105 462.523C588.196 477.798 615.626 558.063 742.697 525.837C869.768 493.611 904.47 406.806 1038.45 476.537C1172.43 546.268 1317.05 564.499 1414.58 476.537C1512.1 388.575 1613.07 490.073 1613.07 490.073L1598.38 -264.61H108.507L86.9331 397.895Z" fill="#999999"/>
</g>
<defs>
<clipPath id="clip0">
<rect width="1400" height="776" fill="white" transform="translate(0 -240)"/>
</clipPath>
</defs>
</svg>
