<?xml version="1.0" encoding="utf-8"?>
<!-- Generator: Adobe Illustrator 15.0.2, SVG Export Plug-In . SVG Version: 6.00 Build 0)  -->
<!DOCTYPE svg PUBLIC "-//W3C//DTD SVG 1.1//EN" "http://www.w3.org/Graphics/SVG/1.1/DTD/svg11.dtd">
<svg version="1.1" id="レイヤー_1" xmlns="http://www.w3.org/2000/svg" xmlns:xlink="http://www.w3.org/1999/xlink" x="0px"
	 y="0px" width="1040.561px" height="151px" viewBox="0 0 1040.561 151" enable-background="new 0 0 1040.561 151"
	 xml:space="preserve">
<g>
	<g>
		<g>
			<g>
				<line fill="#FFFFFF" x1="112.615" y1="17.613" x2="236.604" y2="133.611"/>
				
					<line fill="none" stroke="#231815" stroke-width="35" stroke-miterlimit="10" x1="112.615" y1="17.613" x2="236.604" y2="133.611"/>
			</g>
			<g>
				<line fill="#FFFFFF" x1="137.989" y1="17.613" x2="13.999" y2="133.611"/>
				
					<line fill="none" stroke="#231815" stroke-width="35" stroke-miterlimit="10" x1="137.989" y1="17.613" x2="13.999" y2="133.611"/>
			</g>
		</g>
		<g>
			<g>
				<line fill="#FFFFFF" x1="336.34" y1="17.613" x2="212.35" y2="133.611"/>
				
					<line fill="none" stroke="#231815" stroke-width="35" stroke-miterlimit="10" x1="336.34" y1="17.613" x2="212.35" y2="133.611"/>
			</g>
			<g>
				<line fill="#FFFFFF" x1="310.965" y1="17.613" x2="434.955" y2="133.611"/>
				
					<line fill="none" stroke="#231815" stroke-width="35" stroke-miterlimit="10" x1="310.965" y1="17.613" x2="434.955" y2="133.611"/>
			</g>
		</g>
		<g>
			<g>
				<line fill="#FFFFFF" x1="533.662" y1="17.613" x2="409.672" y2="133.611"/>
				
					<line fill="none" stroke="#231815" stroke-width="35" stroke-miterlimit="10" x1="533.662" y1="17.613" x2="409.672" y2="133.611"/>
			</g>
			<g>
				<line fill="#FFFFFF" x1="508.288" y1="17.613" x2="632.278" y2="133.611"/>
				
					<line fill="none" stroke="#231815" stroke-width="35" stroke-miterlimit="10" x1="508.288" y1="17.613" x2="632.278" y2="133.611"/>
			</g>
		</g>
		<g>
			<g>
				<line fill="#FFFFFF" x1="730.984" y1="17.613" x2="606.995" y2="133.611"/>
				
					<line fill="none" stroke="#231815" stroke-width="35" stroke-miterlimit="10" x1="730.984" y1="17.613" x2="606.995" y2="133.611"/>
			</g>
			<g>
				<line fill="#FFFFFF" x1="705.61" y1="17.613" x2="829.601" y2="133.611"/>
				
					<line fill="none" stroke="#231815" stroke-width="35" stroke-miterlimit="10" x1="705.61" y1="17.613" x2="829.601" y2="133.611"/>
			</g>
		</g>
		<g>
			<g>
				<line fill="#FFFFFF" x1="928.273" y1="17.613" x2="804.284" y2="133.611"/>
				
					<line fill="none" stroke="#231815" stroke-width="35" stroke-miterlimit="10" x1="928.273" y1="17.613" x2="804.284" y2="133.611"/>
			</g>
			<g>
				<line fill="#FFFFFF" x1="902.899" y1="17.613" x2="1026.89" y2="133.611"/>
				
					<line fill="none" stroke="#231815" stroke-width="35" stroke-miterlimit="10" x1="902.899" y1="17.613" x2="1026.89" y2="133.611"/>
			</g>
		</g>
	</g>
</g>
</svg>
